<?xml version="1.0" encoding="UTF-8" ?>
<!DOCTYPE svg PUBLIC "-//W3C//DTD SVG 1.1//EN" "http://www.w3.org/Graphics/SVG/1.1/DTD/svg11.dtd">
<svg width="1024pt" height="1024pt" viewBox="0 0 1024 1024" version="1.1" xmlns="http://www.w3.org/2000/svg">
<g id="#1ab691ff">
<path fill="#1ab691" opacity="1.00" d=" M 345.02 34.14 C 346.27 33.75 347.54 33.49 348.85 33.38 L 348.17 32.43 C 351.08 32.50 354.00 32.50 356.92 32.49 L 356.21 33.71 C 371.54 34.63 386.88 38.32 400.58 45.46 C 434.08 62.36 457.14 98.32 457.67 135.95 C 457.74 165.22 457.72 194.50 457.68 223.78 C 481.13 224.06 504.61 223.14 528.03 224.46 C 573.74 227.44 618.49 242.89 656.45 268.49 C 685.12 287.93 710.22 312.89 729.00 342.04 C 754.47 380.50 769.31 425.89 771.66 471.95 C 773.64 485.26 771.83 498.67 770.74 511.96 C 764.46 579.00 730.77 642.92 679.14 686.11 C 635.25 723.54 578.58 745.64 520.95 747.75 C 514.41 749.01 507.45 749.38 500.98 747.82 C 464.36 746.76 428.07 737.57 395.12 721.59 C 358.94 703.84 326.71 677.92 302.24 645.84 C 270.40 604.75 251.39 553.93 248.38 502.05 C 247.89 497.70 247.31 493.36 247.45 488.97 C 247.33 371.31 247.39 253.64 247.45 135.97 C 248.38 126.92 249.55 117.81 252.20 109.07 C 259.20 85.56 274.63 64.64 295.22 51.27 C 309.95 41.30 327.35 35.62 345.02 34.14 M 460.39 525.55 C 440.60 505.71 420.79 485.89 400.99 466.06 C 387.79 479.24 374.70 492.53 361.41 505.62 C 380.06 523.97 398.34 542.69 416.99 561.03 C 419.44 563.27 421.26 566.09 423.56 568.48 C 435.67 580.72 447.94 592.81 460.06 605.04 C 526.16 538.78 592.36 472.61 658.59 406.48 C 645.33 393.38 632.16 380.17 619.03 366.94 C 566.18 419.84 513.34 472.74 460.39 525.55 Z" />
</g>
<g id="#ffffffff">
<path fill="#ffffff" opacity="1.00" d=" M 460.39 525.55 C 513.34 472.74 566.18 419.84 619.03 366.94 C 632.16 380.17 645.33 393.38 658.59 406.48 C 592.36 472.61 526.16 538.78 460.06 605.04 C 447.94 592.81 435.67 580.72 423.56 568.48 C 421.26 566.09 419.44 563.27 416.99 561.03 C 398.34 542.69 380.06 523.97 361.41 505.62 C 374.70 492.53 387.79 479.24 400.99 466.06 C 420.79 485.89 440.60 505.71 460.39 525.55 Z" />
</g>
<g id="#888588fb">
<path fill="#888588" opacity="1.00" d=" M 67.24 789.50 C 70.33 789.49 73.41 789.49 76.50 789.50 C 76.47 812.38 76.58 835.27 76.45 858.15 C 80.70 849.66 87.67 842.49 96.44 838.68 C 107.40 833.85 120.43 833.64 131.49 838.29 C 143.06 843.31 150.49 854.89 153.17 866.89 C 155.86 878.98 155.58 891.71 152.74 903.75 C 149.51 916.78 141.62 929.22 129.57 935.69 C 119.37 940.96 106.95 941.67 96.12 937.96 C 87.39 934.94 80.78 927.84 76.48 919.87 C 76.53 925.82 76.49 931.78 76.51 937.74 C 73.42 937.75 70.34 937.75 67.25 937.75 C 67.24 888.34 67.25 838.92 67.24 789.50 M 105.16 844.18 C 92.86 845.98 83.25 855.82 79.16 867.17 C 75.51 876.35 76.69 886.38 76.50 896.01 C 76.50 909.12 83.73 922.43 95.59 928.41 C 104.13 932.39 114.46 933.04 123.15 929.16 C 131.09 925.56 136.78 918.32 140.31 910.53 C 144.57 900.70 145.72 889.73 145.06 879.12 C 144.37 868.29 140.54 857.04 131.96 849.95 C 124.66 843.69 114.34 842.43 105.16 844.18 Z" />
<path fill="#888588" opacity="1.00" d=" M 514.50 789.50 C 517.58 789.49 520.67 789.49 523.76 789.50 C 523.75 838.92 523.76 888.33 523.75 937.75 C 520.67 937.75 517.58 937.75 514.50 937.76 C 514.50 931.73 514.46 925.70 514.53 919.67 C 509.61 928.69 501.10 935.66 491.19 938.46 C 479.35 941.80 465.74 940.75 455.49 933.55 C 445.82 926.88 439.80 915.95 437.69 904.54 C 435.38 891.75 435.74 878.26 439.99 865.90 C 444.45 853.10 454.24 841.71 467.30 837.30 C 476.74 834.25 487.25 834.04 496.67 837.28 C 504.51 839.98 510.61 846.20 514.51 853.38 C 514.48 832.09 514.50 810.79 514.50 789.50 M 473.40 844.54 C 466.76 846.26 460.76 850.20 456.38 855.46 C 450.08 862.81 447.12 872.44 446.37 881.96 C 445.52 892.01 446.31 902.45 450.16 911.85 C 454.14 921.47 462.71 929.61 473.23 931.24 C 482.76 932.69 493.19 930.98 501.01 925.07 C 507.56 919.88 512.11 912.28 513.71 904.09 C 515.01 898.16 514.34 892.06 514.49 886.06 C 514.33 879.84 515.09 873.50 513.44 867.43 C 510.95 857.45 503.54 848.53 493.65 845.25 C 487.14 843.15 480.04 842.91 473.40 844.54 Z" />
<path fill="#888588" opacity="1.00" d=" M 244.72 845.58 C 254.38 838.78 266.27 835.22 278.04 834.97 C 287.45 834.75 297.39 838.08 303.24 845.78 C 309.91 854.27 310.97 865.57 310.76 876.00 C 310.74 896.58 310.76 917.17 310.75 937.75 C 307.67 937.75 304.58 937.75 301.50 937.76 C 301.51 931.04 301.45 924.32 301.54 917.60 C 296.23 928.85 285.64 937.82 273.18 939.74 C 263.25 941.26 252.05 939.65 244.45 932.59 C 234.51 923.79 233.14 907.84 239.55 896.61 C 245.37 887.01 256.63 882.74 267.14 880.68 C 278.58 878.74 290.09 877.26 301.56 875.45 C 301.28 866.78 300.33 857.33 294.49 850.44 C 289.33 844.37 280.73 842.76 273.15 843.70 C 262.50 844.73 252.82 850.09 244.75 856.87 C 244.75 853.10 244.76 849.34 244.72 845.58 M 271.79 888.33 C 264.95 889.54 257.81 890.94 252.06 895.08 C 246.37 899.37 245.02 907.15 245.60 913.85 C 246.12 920.51 250.39 926.69 256.47 929.47 C 262.27 932.08 268.94 932.26 275.09 930.95 C 285.52 928.88 294.04 920.77 298.15 911.17 C 301.97 902.65 301.53 893.14 301.51 884.03 C 291.60 885.44 281.69 886.87 271.79 888.33 Z" />
<path fill="#888588" opacity="1.00" d=" M 369.86 836.60 C 378.06 834.39 387.04 834.21 395.10 837.09 C 401.70 839.43 407.08 844.52 410.30 850.69 C 414.76 859.05 415.66 868.72 415.76 878.04 C 415.75 897.95 415.76 917.85 415.75 937.75 C 412.67 937.75 409.58 937.75 406.50 937.76 C 406.47 918.16 406.53 898.57 406.47 878.98 C 406.22 869.10 405.10 858.31 398.36 850.53 C 391.71 843.18 380.57 842.20 371.48 844.70 C 357.17 848.71 347.97 863.54 347.76 877.96 C 347.74 897.89 347.77 917.82 347.75 937.75 C 344.66 937.75 341.58 937.75 338.49 937.74 C 338.50 904.33 338.49 870.91 338.50 837.50 C 341.58 837.49 344.67 837.49 347.76 837.50 C 347.74 843.52 347.78 849.54 347.72 855.56 C 352.39 846.78 360.12 839.32 369.86 836.60 Z" />
<path fill="#888588" opacity="1.00" d=" M 201.13 839.12 C 208.24 834.77 217.21 834.58 225.00 837.10 C 225.00 840.41 224.99 843.73 225.01 847.06 C 218.53 842.62 209.51 842.68 203.01 847.03 C 196.75 851.28 192.48 857.96 190.03 865.03 C 187.32 873.02 186.36 881.53 186.50 889.94 C 186.51 905.88 186.51 921.82 186.50 937.76 C 183.50 937.75 180.50 937.75 177.50 937.76 C 177.49 904.34 177.50 870.92 177.50 837.50 C 180.50 837.49 183.50 837.49 186.50 837.50 C 186.49 844.82 186.54 852.14 186.47 859.46 C 189.04 851.38 193.68 843.55 201.13 839.12 Z" />
</g>
<g id="#292f33ff">
<path fill="#292f33" opacity="1.00" d=" M 824.25 937.75 C 824.26 888.33 824.23 838.91 824.27 789.49 C 829.67 789.50 835.08 789.49 840.50 789.50 C 840.52 820.79 840.47 852.08 840.52 883.38 C 854.76 868.20 868.66 852.70 882.85 837.49 C 889.99 837.52 897.12 837.47 904.26 837.52 C 888.79 853.65 873.18 869.66 857.79 885.86 C 874.37 903.23 891.16 920.40 907.78 937.73 C 900.08 937.53 892.27 938.20 884.64 937.43 C 869.82 921.57 855.31 905.40 840.49 889.54 C 840.50 905.61 840.51 921.68 840.49 937.75 C 835.07 937.74 829.66 937.75 824.25 937.75 Z" />
<path fill="#292f33" opacity="1.00" d=" M 589.09 837.19 C 599.19 833.84 611.30 834.40 619.88 841.21 C 624.62 844.67 627.80 849.80 629.91 855.20 C 634.03 848.74 639.02 842.45 646.08 839.04 C 654.99 834.53 665.65 834.21 675.15 836.88 C 682.96 839.10 689.30 845.24 692.30 852.73 C 697.28 864.50 696.11 877.55 696.25 890.02 C 696.24 905.93 696.26 921.84 696.24 937.75 C 690.83 937.74 685.42 937.74 680.01 937.75 C 679.99 919.49 679.99 901.23 680.01 882.97 C 679.96 874.39 679.81 865.26 675.58 857.55 C 672.58 851.94 666.10 849.38 660.03 849.05 C 654.57 848.49 648.94 850.19 644.75 853.74 C 637.22 860.17 633.24 870.13 633.24 879.94 C 633.25 899.21 633.26 918.48 633.24 937.75 C 627.83 937.74 622.42 937.74 617.01 937.75 C 616.99 918.16 616.99 898.58 617.01 878.99 C 616.92 871.03 616.08 862.40 610.96 855.93 C 606.04 849.78 597.34 848.03 589.90 849.41 C 583.19 850.70 577.81 855.71 574.60 861.56 C 571.10 867.76 570.10 875.04 570.23 882.07 C 570.26 900.63 570.25 919.19 570.24 937.75 C 564.83 937.74 559.42 937.74 554.01 937.75 C 553.99 904.34 554.01 870.92 554.00 837.51 C 559.41 837.49 564.83 837.49 570.25 837.51 C 570.24 842.86 570.26 848.20 570.23 853.56 C 574.54 846.28 580.90 839.85 589.09 837.19 Z" />
<path fill="#292f33" opacity="1.00" d=" M 726.71 844.58 C 739.11 836.69 754.37 833.97 768.86 835.74 C 776.91 836.79 785.09 840.40 789.82 847.26 C 795.38 854.93 796.48 864.78 796.51 874.00 C 796.51 895.23 796.45 916.46 796.54 937.69 C 791.11 937.80 785.68 937.73 780.25 937.75 C 780.25 932.43 780.24 927.12 780.26 921.82 C 776.58 927.80 771.78 933.30 765.38 936.42 C 756.32 940.79 745.57 940.99 736.02 938.16 C 726.92 935.44 719.42 927.66 717.65 918.24 C 715.91 908.75 717.15 898.04 723.54 890.44 C 729.74 883.09 739.36 879.88 748.57 878.41 C 759.15 876.87 769.75 875.49 780.33 873.95 C 779.98 866.97 779.09 859.30 773.95 854.07 C 769.00 849.17 761.50 848.48 754.91 849.19 C 744.51 850.06 734.74 854.70 726.75 861.29 C 726.74 855.72 726.78 850.15 726.71 844.58 M 759.04 889.92 C 752.11 890.84 744.83 891.96 739.00 896.10 C 734.49 899.53 733.44 905.71 733.76 911.05 C 734.00 917.23 738.52 922.71 744.25 924.79 C 755.41 928.89 768.96 924.35 775.28 914.24 C 780.85 906.31 780.36 896.24 780.25 887.02 C 773.17 887.95 766.11 888.97 759.04 889.92 Z" />
<path fill="#292f33" opacity="1.00" d=" M 952.08 839.15 C 958.57 835.05 966.78 835.02 974.01 836.92 C 974.00 842.59 973.97 848.27 974.02 853.94 C 968.83 850.69 962.23 849.84 956.37 851.57 C 950.01 853.50 945.33 858.86 942.44 864.64 C 938.55 872.47 938.02 881.40 937.99 890.00 C 938.00 905.91 938.00 921.83 937.99 937.75 C 932.58 937.74 927.17 937.74 921.76 937.75 C 921.74 904.34 921.76 870.92 921.75 837.51 C 927.16 837.48 932.57 837.51 937.98 837.49 C 938.02 844.46 937.98 851.43 938.00 858.40 C 940.68 850.82 944.95 843.34 952.08 839.15 Z" />
</g>
</svg>
