<?xml version="1.0" encoding="UTF-8" ?>
<!DOCTYPE svg PUBLIC "-//W3C//DTD SVG 1.1//EN" "http://www.w3.org/Graphics/SVG/1.1/DTD/svg11.dtd">
<svg width="1024pt" height="1024pt" viewBox="0 0 1024 1024" version="1.1" xmlns="http://www.w3.org/2000/svg">
<g id="#1ab691ff">
<path fill="#1ab691" opacity="1.00" d=" M 315.01 41.97 C 331.52 35.39 349.66 33.83 367.22 35.87 C 389.49 38.97 410.70 49.46 426.60 65.39 C 446.08 84.54 457.76 111.59 457.69 138.97 C 457.74 167.59 457.69 196.22 457.72 224.84 C 473.82 224.74 489.93 224.82 506.03 224.80 C 526.25 224.67 546.51 226.52 566.26 230.91 C 607.48 239.88 646.44 259.05 678.66 286.27 C 706.38 309.49 729.16 338.55 745.14 370.98 C 760.28 401.52 769.26 435.07 771.52 469.07 C 771.60 470.67 771.54 472.33 772.19 473.85 C 772.74 482.47 772.51 491.12 772.33 499.76 L 771.65 499.22 C 738.23 473.03 704.80 446.87 671.39 420.68 C 666.63 416.79 661.44 413.38 657.20 408.88 C 657.56 408.53 658.27 407.84 658.63 407.49 C 645.37 394.35 632.17 381.15 619.03 367.90 C 566.20 420.80 513.31 473.66 460.43 526.52 C 440.62 506.66 420.73 486.88 400.99 466.96 C 387.87 480.26 374.64 493.45 361.41 506.64 C 375.32 520.35 389.03 534.26 402.86 548.05 C 409.39 554.86 416.63 561.02 422.51 568.41 C 434.19 580.39 446.22 592.03 457.92 604.00 C 458.24 605.77 458.79 607.63 460.41 608.67 C 511.16 648.54 562.10 688.19 612.79 728.14 C 593.23 736.64 572.56 742.47 551.51 745.81 C 531.89 749.18 511.89 749.33 492.04 748.50 C 452.89 745.86 414.31 734.34 380.26 714.79 C 349.25 697.14 321.88 673.09 300.47 644.53 C 269.88 604.09 251.54 554.54 248.43 503.93 C 247.11 496.01 247.58 487.96 247.48 479.96 C 247.36 365.65 247.42 251.34 247.49 137.03 C 248.64 121.86 251.93 106.59 259.02 93.01 C 270.43 69.78 290.94 51.34 315.01 41.97 Z" />
</g>
<g id="#fefefeff">
<path fill="#fefefe" opacity="1.00" d=" M 460.43 526.52 C 513.31 473.66 566.20 420.80 619.03 367.90 C 632.17 381.15 645.37 394.35 658.63 407.49 C 658.27 407.84 657.56 408.53 657.20 408.88 C 591.47 474.62 525.66 540.28 460.04 606.12 C 459.51 605.59 458.45 604.53 457.92 604.00 C 446.22 592.03 434.19 580.39 422.51 568.41 C 416.63 561.02 409.39 554.86 402.86 548.05 C 389.03 534.26 375.32 520.35 361.41 506.64 C 374.64 493.45 387.87 480.26 400.99 466.96 C 420.73 486.88 440.62 506.66 460.43 526.52 Z" />
</g>
<g id="#149274ff">
<path fill="#149274" opacity="1.00" d=" M 460.04 606.12 C 525.66 540.28 591.47 474.62 657.20 408.88 C 661.44 413.38 666.63 416.79 671.39 420.68 C 704.80 446.87 738.23 473.03 771.65 499.22 C 769.06 566.85 738.31 632.74 688.65 678.64 C 666.51 699.42 640.62 716.08 612.79 728.14 C 562.10 688.19 511.16 648.54 460.41 608.67 C 458.79 607.63 458.24 605.77 457.92 604.00 C 458.45 604.53 459.51 605.59 460.04 606.12 Z" />
</g>
<g id="#888589fc">
<path fill="#888589" opacity="1.00" d=" M 67.24 807.51 C 70.33 807.49 73.41 807.49 76.50 807.50 C 76.47 830.39 76.58 853.28 76.44 876.17 C 80.78 867.44 88.05 860.14 97.11 856.39 C 108.17 851.77 121.23 851.71 132.20 856.61 C 143.59 861.90 150.76 873.53 153.31 885.51 C 155.82 897.43 155.54 909.93 152.73 921.77 C 149.50 934.79 141.62 947.21 129.60 953.68 C 119.41 958.95 106.99 959.67 96.16 955.98 C 87.42 952.96 80.78 945.85 76.48 937.86 C 76.52 943.82 76.51 949.79 76.49 955.76 C 73.41 955.75 70.33 955.75 67.25 955.75 C 67.24 906.33 67.25 856.92 67.24 807.51 M 105.18 862.17 C 98.99 863.30 92.98 866.05 88.53 870.56 C 80.51 878.45 76.26 889.80 76.49 901.00 C 76.73 909.01 75.68 917.25 78.16 925.02 C 81.04 934.23 87.43 942.65 96.31 946.75 C 104.70 950.40 114.69 950.95 123.14 947.17 C 130.89 943.66 136.49 936.67 140.05 929.11 C 144.42 919.42 145.64 908.56 145.13 898.03 C 144.56 887.14 140.97 875.74 132.50 868.41 C 125.19 861.79 114.58 860.37 105.18 862.17 Z" />
<path fill="#888589" opacity="1.00" d=" M 514.50 807.50 C 517.58 807.49 520.67 807.49 523.76 807.51 C 523.75 856.92 523.76 906.33 523.75 955.75 C 520.66 955.75 517.57 955.75 514.49 955.74 C 514.51 949.71 514.46 943.67 514.53 937.64 C 509.63 946.71 501.05 953.69 491.11 956.48 C 478.84 959.93 464.62 958.62 454.31 950.69 C 444.61 943.48 438.99 931.92 437.27 920.15 C 435.37 907.15 436.03 893.46 441.03 881.20 C 446.04 868.97 456.14 858.41 469.06 854.75 C 478.05 852.28 487.87 852.21 496.71 855.29 C 504.52 858.01 510.65 864.21 514.50 871.41 C 514.50 850.11 514.49 828.80 514.50 807.50 M 473.43 862.53 C 461.90 865.44 452.94 875.08 449.20 886.15 C 445.45 897.35 445.25 909.55 447.46 921.09 C 449.34 930.90 454.74 940.40 463.45 945.64 C 471.90 950.77 482.55 950.62 491.78 947.87 C 501.24 944.98 508.54 937.08 512.01 927.99 C 514.86 921.02 514.59 913.40 514.50 906.02 C 514.25 898.66 515.34 891.08 513.02 883.95 C 510.24 874.59 503.06 866.39 493.70 863.26 C 487.19 861.15 480.08 860.91 473.43 862.53 Z" />
<path fill="#888589" opacity="1.00" d=" M 273.41 853.18 C 283.03 852.27 293.79 853.97 300.82 861.15 C 308.55 868.50 310.66 879.72 310.76 889.97 C 310.74 911.89 310.76 933.82 310.75 955.75 C 307.67 955.75 304.58 955.75 301.51 955.76 C 301.50 949.02 301.47 942.29 301.53 935.57 C 297.18 944.75 289.48 952.43 279.87 955.97 C 271.97 958.88 263.14 958.96 255.08 956.63 C 245.97 953.96 238.44 946.22 236.46 936.88 C 234.54 927.84 236.10 917.52 242.57 910.58 C 249.33 903.22 259.34 900.09 268.90 898.36 C 279.76 896.65 290.66 895.13 301.54 893.46 C 301.31 884.77 300.32 875.31 294.48 868.42 C 289.53 862.61 281.37 860.88 274.06 861.60 C 263.09 862.45 253.03 867.87 244.75 874.88 C 244.74 871.11 244.76 867.35 244.72 863.60 C 253.07 857.55 263.26 854.37 273.41 853.18 M 274.00 905.99 C 266.65 907.16 258.98 908.47 252.66 912.64 C 247.33 916.18 245.44 922.93 245.47 929.02 C 245.26 935.18 247.88 941.47 252.84 945.25 C 258.81 949.83 266.94 950.45 274.13 949.15 C 284.72 947.41 293.53 939.43 297.86 929.83 C 301.97 921.16 301.55 911.37 301.52 902.03 C 292.34 903.29 283.18 904.71 274.00 905.99 Z" />
<path fill="#888589" opacity="1.00" d=" M 370.60 854.39 C 379.50 852.22 389.34 852.22 397.74 856.21 C 404.34 859.36 409.19 865.38 411.89 872.09 C 414.99 879.64 415.66 887.91 415.76 896.00 C 415.74 915.91 415.76 935.83 415.75 955.75 C 412.67 955.75 409.58 955.75 406.51 955.76 C 406.48 941.83 406.50 927.91 406.50 913.98 C 406.35 904.15 407.04 894.24 405.38 884.50 C 404.09 877.43 401.24 870.04 395.19 865.72 C 387.57 860.39 377.26 860.49 368.79 863.60 C 355.94 868.67 348.01 882.44 347.76 895.93 C 347.74 915.87 347.76 935.81 347.75 955.75 C 344.66 955.75 341.58 955.75 338.49 955.74 C 338.50 922.33 338.49 888.91 338.50 855.50 C 341.58 855.49 344.67 855.49 347.75 855.50 C 347.74 861.53 347.78 867.56 347.72 873.59 C 352.48 864.55 360.54 856.96 370.60 854.39 Z" />
<path fill="#888589" opacity="1.00" d=" M 201.13 857.12 C 208.24 852.79 217.23 852.53 225.00 855.14 C 225.00 858.45 224.99 861.76 225.00 865.08 C 218.36 860.42 208.94 860.73 202.41 865.43 C 190.97 873.80 187.26 888.69 186.56 902.15 C 186.43 920.01 186.54 937.88 186.51 955.74 C 183.50 955.75 180.50 955.75 177.50 955.75 C 177.49 922.33 177.49 888.92 177.50 855.50 C 180.50 855.49 183.50 855.49 186.50 855.50 C 186.48 862.85 186.55 870.20 186.46 877.55 C 188.99 869.43 193.67 861.57 201.13 857.12 Z" />
</g>
<g id="#292f33ff">
<path fill="#292f33" opacity="1.00" d=" M 824.25 807.51 C 829.66 807.49 835.08 807.49 840.49 807.51 C 840.52 838.79 840.48 870.08 840.51 901.36 C 854.78 886.21 868.65 870.69 882.86 855.49 C 889.99 855.52 897.13 855.47 904.27 855.51 C 888.79 871.65 873.18 887.65 857.79 903.87 C 874.38 921.22 891.14 938.40 907.77 955.72 C 900.51 955.76 893.26 955.77 886.01 955.74 C 884.12 955.89 883.31 953.85 882.11 952.80 C 868.25 937.70 854.45 922.54 840.48 907.54 C 840.53 923.60 840.48 939.67 840.51 955.73 C 835.09 955.76 829.67 955.74 824.26 955.74 C 824.24 906.33 824.26 856.92 824.25 807.51 Z" />
<path fill="#292f33" opacity="1.00" d=" M 589.11 855.18 C 599.17 851.85 611.25 852.40 619.82 859.17 C 624.47 862.52 627.58 867.49 629.74 872.73 C 629.86 872.78 630.10 872.90 630.23 872.96 C 633.68 867.13 638.11 861.67 644.02 858.19 C 653.07 852.71 664.42 852.05 674.50 854.69 C 682.33 856.73 688.87 862.64 692.01 870.06 C 697.19 881.64 696.15 894.62 696.25 906.98 C 696.24 923.23 696.26 939.49 696.24 955.74 C 690.83 955.75 685.42 955.74 680.01 955.75 C 679.99 939.15 680.01 922.56 680.00 905.96 C 679.96 895.96 680.53 885.32 675.90 876.13 C 673.18 870.54 667.03 867.62 661.06 867.14 C 655.27 866.32 649.17 867.96 644.71 871.78 C 637.20 878.22 633.22 888.18 633.24 897.98 C 633.25 917.24 633.26 936.49 633.24 955.75 C 627.83 955.75 622.42 955.74 617.01 955.75 C 616.99 937.82 617.01 919.89 617.00 901.97 C 617.08 892.87 617.13 882.95 611.84 875.11 C 607.36 868.35 598.46 866.08 590.80 867.26 C 584.45 868.15 579.07 872.45 575.69 877.75 C 571.76 883.69 570.29 890.93 570.24 897.97 C 570.25 917.23 570.26 936.49 570.24 955.75 C 564.83 955.75 559.42 955.74 554.01 955.75 C 554.00 922.33 553.99 888.91 554.02 855.49 C 559.42 855.51 564.83 855.48 570.25 855.51 C 570.25 860.86 570.26 866.22 570.24 871.58 C 574.51 864.27 580.91 857.85 589.11 855.18 Z" />
<path fill="#292f33" opacity="1.00" d=" M 726.73 862.56 C 739.11 854.70 754.34 851.97 768.79 853.73 C 776.86 854.77 785.07 858.37 789.80 865.25 C 794.99 872.34 796.29 881.41 796.49 889.98 C 796.50 911.90 796.51 933.82 796.49 955.75 C 791.08 955.74 785.67 955.75 780.26 955.75 C 780.24 950.42 780.25 945.10 780.26 939.79 C 776.27 946.45 770.66 952.43 763.33 955.35 C 754.68 958.78 744.84 958.80 735.98 956.15 C 726.89 953.41 719.41 945.63 717.64 936.22 C 715.92 926.73 717.15 916.03 723.54 908.44 C 729.58 901.27 738.91 898.03 747.89 896.52 C 758.68 894.91 769.52 893.54 780.32 891.94 C 780.00 884.95 779.06 877.26 773.91 872.02 C 768.96 867.19 761.53 866.48 754.98 867.18 C 744.55 868.05 734.74 872.67 726.75 879.31 C 726.74 873.72 726.76 868.14 726.73 862.56 M 759.86 907.81 C 752.10 908.90 743.52 909.89 737.51 915.42 C 731.83 922.50 732.17 934.65 739.78 940.29 C 745.14 944.44 752.50 944.93 758.94 943.60 C 767.37 941.88 774.43 935.53 777.74 927.69 C 780.86 920.55 780.20 912.61 780.25 905.02 C 773.45 905.91 766.65 906.89 759.86 907.81 Z" />
<path fill="#292f33" opacity="1.00" d=" M 950.92 857.90 C 957.56 853.17 966.37 852.78 974.01 854.97 C 974.00 860.64 973.98 866.31 974.02 871.99 C 969.33 868.89 963.38 868.09 957.94 869.14 C 950.63 870.68 945.21 876.73 942.14 883.24 C 937.94 892.20 937.95 902.33 938.00 912.02 C 937.99 926.59 938.01 941.17 937.99 955.75 C 932.57 955.74 927.16 955.75 921.75 955.74 C 921.75 922.33 921.75 888.92 921.75 855.51 C 927.16 855.48 932.57 855.51 937.98 855.49 C 938.03 862.46 937.97 869.44 938.01 876.41 C 940.53 869.24 944.44 862.19 950.92 857.90 Z" />
</g>
</svg>
