<?xml version="1.0" encoding="utf-8" ?>
<svg version="1.1" xmlns="http://www.w3.org/2000/svg" xmlns:xlink="http://www.w3.org/1999/xlink" width="300" height="300" viewBox="0 0 300 300">
	<g id="widget" transform="matrix(1,0,0,1,150,150)">
		<path d="M-78.6344,19.2219 L-78.6344,28.4923 C-78.6344,71.9495 -43.4547,107.129 0.00249753,107.129 C43.4597,107.129 78.6394,71.9495 78.6394,28.4923 C78.6394,-14.965 43.4597,-50.1447 0.00249753,-50.1447 L-15.6663,-50.1447 L-15.6663,-75.6426 C-15.6663,-92.9761 -29.8193,-107.129 -47.1528,-107.129 C-64.4864,-107.129 -78.6394,-92.9761 -78.6394,-75.6426 L-78.6394,18.6581 C-78.6394,18.8464 -78.6377,19.0343 -78.6344,19.2219 Z" fill="#1ab691" fill-opacity="1" />
		<path d="M-14.8702,40.3502 L-32.7024,22.518 L-44.5746,34.3903 L-26.7425,52.2224 L-26.8597,52.3397 L-14.9875,64.212 L44.5796,4.64482 L32.7074,-7.22743 L-14.8702,40.3502 Z" fill="#ffffff" fill-opacity="1" />
	</g>
</svg>
