<?xml version="1.0" encoding="UTF-8" ?>
<!DOCTYPE svg PUBLIC "-//W3C//DTD SVG 1.1//EN" "http://www.w3.org/Graphics/SVG/1.1/DTD/svg11.dtd">
<svg width="600pt" height="600pt" viewBox="0 0 600 600" version="1.1" xmlns="http://www.w3.org/2000/svg">
<g id="#fffef5ff">
<path fill="#fffef5" opacity="1.00" d=" M 289.29 0.00 L 311.58 0.00 C 369.22 2.19 426.12 21.33 473.14 54.79 C 507.88 79.32 537.31 111.31 558.86 147.98 C 584.09 190.64 598.25 239.68 600.00 289.18 L 600.00 311.73 C 598.61 343.79 592.39 375.70 580.99 405.73 C 556.63 381.87 532.72 357.54 508.53 333.49 C 493.21 318.13 477.81 302.85 462.55 287.44 C 456.39 281.51 451.03 274.72 443.95 269.82 C 426.63 243.79 401.43 223.04 372.43 211.31 C 353.34 203.47 332.68 199.61 312.05 199.69 C 301.93 199.73 291.80 199.62 281.67 199.75 C 281.60 182.13 281.70 164.52 281.62 146.90 C 281.30 120.70 262.58 96.24 237.58 88.64 C 228.20 85.90 218.15 84.07 208.49 86.54 C 193.24 89.05 179.08 97.39 169.50 109.51 C 160.90 120.06 156.25 133.48 155.48 146.99 C 155.46 218.00 155.38 289.01 155.50 360.02 C 156.33 380.38 160.39 400.72 168.59 419.43 C 180.36 446.76 200.15 470.52 224.75 487.24 C 225.16 490.60 228.51 492.09 230.54 494.39 C 259.16 522.47 287.29 551.05 315.72 579.33 C 321.93 585.62 328.32 591.73 334.38 598.16 C 326.54 599.14 318.64 599.72 310.75 600.00 L 289.25 600.00 C 249.68 598.58 210.37 589.35 174.42 572.70 C 141.39 557.49 111.20 536.17 85.74 510.21 C 44.19 468.00 15.51 413.25 4.87 354.95 C 2.18 340.36 0.57 325.57 0.00 310.75 L 0.00 289.17 C 0.66 272.32 2.64 255.51 6.06 238.99 C 16.44 188.26 40.44 140.45 74.72 101.66 C 105.40 66.75 144.31 39.10 187.41 21.68 C 219.75 8.53 254.42 1.28 289.29 0.00 Z" />
<path fill="#fffef5" opacity="1.00" d=" M 283.21 380.81 C 314.97 349.07 346.65 317.24 378.51 285.60 C 386.27 293.66 394.37 301.39 402.16 309.42 C 376.97 334.14 352.20 359.30 327.18 384.19 C 312.48 398.96 297.64 413.59 283.05 428.47 C 276.40 421.59 269.56 414.90 262.81 408.13 C 250.22 394.59 236.70 381.95 223.86 368.66 C 231.96 360.97 239.70 352.90 247.65 345.05 C 259.39 357.08 271.47 368.78 283.21 380.81 Z" />
</g>
<g id="#1ab691ff">
<path fill="#1ab691" opacity="1.00" d=" M 208.49 86.54 C 218.15 84.07 228.20 85.90 237.58 88.64 C 262.58 96.24 281.30 120.70 281.62 146.90 C 281.70 164.52 281.60 182.13 281.67 199.75 C 291.80 199.62 301.93 199.73 312.05 199.69 C 332.68 199.61 353.34 203.47 372.43 211.31 C 401.43 223.04 426.63 243.79 443.95 269.82 C 452.60 283.73 459.96 298.58 464.24 314.46 C 468.02 327.66 469.74 341.38 470.35 355.07 C 470.17 374.51 467.00 394.04 460.07 412.26 C 447.72 445.21 423.94 473.72 393.72 491.75 C 377.91 501.25 360.40 507.87 342.29 511.34 C 328.38 513.53 314.16 515.77 300.11 513.54 C 279.91 511.89 260.03 506.29 241.97 497.09 C 236.02 494.19 230.49 490.53 224.75 487.24 C 200.15 470.52 180.36 446.76 168.59 419.43 C 160.39 400.72 156.33 380.38 155.50 360.02 C 155.38 289.01 155.46 218.00 155.48 146.99 C 156.25 133.48 160.90 120.06 169.50 109.51 C 179.08 97.39 193.24 89.05 208.49 86.54 M 283.21 380.81 C 271.47 368.78 259.39 357.08 247.65 345.05 C 239.70 352.90 231.96 360.97 223.86 368.66 C 236.70 381.95 250.22 394.59 262.81 408.13 C 269.56 414.90 276.40 421.59 283.05 428.47 C 297.64 413.59 312.48 398.96 327.18 384.19 C 352.20 359.30 376.97 334.14 402.16 309.42 C 394.37 301.39 386.27 293.66 378.51 285.60 C 346.65 317.24 314.97 349.07 283.21 380.81 Z" />
</g>
<g id="#cdccc5ff">
<path fill="#cdccc5" opacity="1.00" d=" M 443.95 269.82 C 451.03 274.72 456.39 281.51 462.55 287.44 C 477.81 302.85 493.21 318.13 508.53 333.49 C 532.72 357.54 556.63 381.87 580.99 405.73 L 580.95 405.86 C 556.83 470.32 509.66 525.73 450.02 560.04 C 414.78 580.41 375.33 593.58 334.86 598.11 L 334.38 598.16 C 328.32 591.73 321.93 585.62 315.72 579.33 C 287.29 551.05 259.16 522.47 230.54 494.39 C 228.51 492.09 225.16 490.60 224.75 487.24 C 230.49 490.53 236.02 494.19 241.97 497.09 C 260.03 506.29 279.91 511.89 300.11 513.54 C 314.16 515.77 328.38 513.53 342.29 511.34 C 360.40 507.87 377.91 501.25 393.72 491.75 C 423.94 473.72 447.72 445.21 460.07 412.26 C 467.00 394.04 470.17 374.51 470.35 355.07 C 469.74 341.38 468.02 327.66 464.24 314.46 C 459.96 298.58 452.60 283.73 443.95 269.82 Z" />
</g>
<g id="#00000032">
<path fill="#000000" opacity="0.20" d=" M 450.02 560.04 C 509.66 525.73 556.83 470.32 580.95 405.86 C 587.41 411.99 593.42 418.57 600.00 424.58 L 600.00 600.00 L 336.33 600.00 C 335.96 599.53 335.23 598.58 334.86 598.11 C 375.33 593.58 414.78 580.41 450.02 560.04 Z" />
</g>
</svg>
