<?xml version="1.0" encoding="UTF-8" ?>
<!DOCTYPE svg PUBLIC "-//W3C//DTD SVG 1.1//EN" "http://www.w3.org/Graphics/SVG/1.1/DTD/svg11.dtd">
<svg width="1024pt" height="1024pt" viewBox="0 0 1024 1024" version="1.1" xmlns="http://www.w3.org/2000/svg">
<g id="#1ab691ff">
<path fill="#1ab691" opacity="1.00" d=" M 306.95 155.86 C 325.32 147.47 346.12 144.53 366.10 147.41 C 389.72 150.65 412.04 162.23 428.49 179.46 C 446.91 198.45 457.91 224.49 458.46 250.96 C 458.70 280.97 458.27 311.02 458.68 341.01 C 464.77 340.58 470.89 340.92 477.00 340.81 C 502.66 340.97 528.51 339.77 553.93 344.11 C 592.61 350.10 629.90 364.83 662.30 386.78 C 690.97 406.18 715.88 431.16 735.12 459.93 C 766.99 507.14 782.81 564.72 780.28 621.56 C 775.93 619.10 772.27 615.67 768.32 612.68 C 738.01 589.00 707.76 565.24 677.46 541.56 C 672.54 537.49 667.19 533.94 662.64 529.45 C 663.03 529.06 663.79 528.29 664.18 527.90 C 650.69 514.36 637.09 500.94 623.68 487.32 C 569.46 541.44 515.36 595.69 461.13 649.80 C 440.98 629.38 420.63 609.03 400.25 588.90 C 386.89 602.45 373.42 615.88 359.90 629.26 C 379.69 649.44 399.88 669.26 419.79 689.33 C 420.30 690.07 420.80 690.83 421.32 691.59 C 434.28 704.79 447.67 717.60 460.43 730.98 L 458.88 731.27 C 459.16 732.16 459.71 732.88 460.52 733.40 C 512.88 774.19 564.97 815.35 617.37 856.09 C 560.77 880.72 495.41 884.21 436.24 866.83 C 398.48 855.79 363.26 836.23 333.87 810.09 C 306.02 785.43 283.40 754.91 267.92 721.09 C 252.33 687.29 244.22 650.18 243.50 613.01 C 243.30 493.00 243.45 372.99 243.46 252.98 C 243.76 233.31 249.41 213.68 259.92 197.01 C 271.09 179.06 287.68 164.54 306.95 155.86 Z" />
</g>
<g id="#fefefeff">
<path fill="#fefefe" opacity="1.00" d=" M 461.13 649.80 C 515.36 595.69 569.46 541.44 623.68 487.32 C 637.09 500.94 650.69 514.36 664.18 527.90 C 663.79 528.29 663.03 529.06 662.64 529.45 C 609.38 582.58 556.23 635.83 503.02 689.01 C 489.21 702.98 475.15 716.70 461.44 730.76 C 461.19 730.81 460.68 730.93 460.43 730.98 C 447.67 717.60 434.28 704.79 421.32 691.59 C 420.80 690.83 420.30 690.07 419.79 689.33 C 399.88 669.26 379.69 649.44 359.90 629.26 C 373.42 615.88 386.89 602.45 400.25 588.90 C 420.63 609.03 440.98 629.38 461.13 649.80 Z" />
</g>
<g id="#149274ff">
<path fill="#149274" opacity="1.00" d=" M 503.02 689.01 C 556.23 635.83 609.38 582.58 662.64 529.45 C 667.19 533.94 672.54 537.49 677.46 541.56 C 707.76 565.24 738.01 589.00 768.32 612.68 C 772.27 615.67 775.93 619.10 780.28 621.56 C 779.16 633.93 778.22 646.40 775.75 658.62 C 766.14 711.18 740.08 760.48 702.41 798.33 C 678.10 822.77 649.09 842.55 617.37 856.09 C 564.97 815.35 512.88 774.19 460.52 733.40 C 459.71 732.88 459.16 732.16 458.88 731.27 L 460.43 730.98 C 460.68 730.93 461.19 730.81 461.44 730.76 C 475.15 716.70 489.21 702.98 503.02 689.01 Z" />
</g>
</svg>
